M48
INCH
T01C0.028
T02C0.032
T03C0.0354
T04C0.038
T05C0.0394
%
T01
X+015418Y+017685
X+016418Y+017685
T02
X+017113Y+025086
X+015213Y+025086
T03
X+010630Y+011713
X+010630Y+012713
X+010630Y+013713
X+010630Y+014713
X+010630Y+015713
X+010630Y+016713
X+010630Y+017713
X+010630Y+018713
X+010630Y+019713
X+010630Y+020713
X+010630Y+021713
X+010630Y+022713
X+010630Y+023713
X+010630Y+024713
X+010630Y+025713
X+010630Y+026713
X+010630Y+027713
X+010630Y+028713
X+010630Y+029713
X+010630Y+030713
X+013564Y+030713
X+013564Y+029713
X+013564Y+028713
X+013564Y+027713
X+013564Y+026713
X+013564Y+025713
X+013564Y+024713
X+013564Y+023713
X+013564Y+022713
X+013564Y+021713
X+013564Y+020713
X+013564Y+019713
X+013564Y+018713
X+013564Y+017713
X+013564Y+016713
X+013564Y+015713
X+013564Y+014713
X+013564Y+013713
X+013564Y+012713
X+013564Y+011713
X+012440Y+009043
X+011440Y+009043
X+010440Y+009043
X+009440Y+009043
X+008440Y+009043
X+007440Y+009043
X+007564Y+011713
X+007564Y+012713
X+007564Y+013713
X+007564Y+014713
X+007564Y+015713
X+007564Y+016713
X+007564Y+017713
X+007564Y+018713
X+007564Y+019713
X+007564Y+020713
X+007564Y+021713
X+007564Y+022713
X+007564Y+023713
X+007564Y+024713
X+007564Y+025713
X+007564Y+026713
X+007564Y+027713
X+007564Y+028713
X+007564Y+029713
X+007564Y+030713
X+004630Y+030713
X+004630Y+029713
X+004630Y+028713
X+004630Y+027713
X+004630Y+026713
X+004630Y+025713
X+004630Y+024713
X+004630Y+023713
X+004630Y+022713
X+004630Y+021713
X+004630Y+020713
X+004630Y+019713
X+004630Y+018713
X+004630Y+017713
X+004630Y+016713
X+004630Y+015713
X+004630Y+014713
X+004630Y+013713
X+004630Y+012713
X+004630Y+011713
X+018203Y+012776
X+018203Y+013776
X+018145Y+017031
X+018145Y+018031
X+018145Y+019031
X+017179Y+021188
X+017179Y+022188
X+015049Y+022160
X+015049Y+021160
X+013984Y+033975
X+012984Y+033975
X+011984Y+033975
X+010984Y+033975
X+009984Y+033975
X+008984Y+033975
T04
X+019570Y+020623
X+019570Y+024623
X+015312Y+027863
X+015312Y+031863
T05
X+017456Y+029675
X+017456Y+033750
X+015388Y+015805
X+015388Y+011730
T00
M30
