G04 DipTrace 2.3.1.0*
%INLA30KBD.GBS*%
%MOMM*%
%ADD31C,1.727*%
%ADD33C,1.727*%
%ADD35C,1.803*%
%ADD37R,1.803X1.803*%
%ADD39R,1.473X1.473*%
%ADD41C,1.473*%
%ADD43C,1.853*%
%ADD45C,1.422*%
%ADD47C,1.703*%
%ADD49R,1.703X1.703*%
%FSLAX53Y53*%
G04*
G71*
G90*
G75*
G01*
%LNBotMask*%
%LPD*%
D49*
X27000Y29751D3*
X31598Y22970D3*
D47*
X29058D3*
X26518D3*
X23978D3*
X21438D3*
X18898D3*
D49*
X35518Y86296D3*
D47*
X32978D3*
X30438D3*
X27898D3*
X25358D3*
X22818D3*
D49*
X46234Y32450D3*
D47*
Y34990D3*
D49*
X46088Y43259D3*
D47*
Y45799D3*
Y48339D3*
D45*
X43468Y63719D3*
X38642D3*
D43*
X44339Y75375D3*
Y85725D3*
X39087Y29795D3*
Y40145D3*
D41*
X39163Y44921D3*
D39*
X41703D3*
D37*
X43635Y56358D3*
D35*
Y53818D3*
D37*
X38224Y56285D3*
D35*
Y53745D3*
D33*
X49708Y52383D3*
D31*
Y62543D3*
D33*
X38893Y80932D3*
D31*
Y70772D3*
D49*
X34452Y29750D3*
D47*
Y32290D3*
Y34830D3*
Y37370D3*
Y39910D3*
Y42450D3*
Y44990D3*
Y47530D3*
Y50070D3*
Y52610D3*
Y55150D3*
Y57690D3*
Y60230D3*
Y62770D3*
Y65310D3*
Y67850D3*
Y70390D3*
Y72930D3*
Y75470D3*
Y78010D3*
X19212D3*
Y75470D3*
Y72930D3*
Y70390D3*
Y67850D3*
Y65310D3*
Y62770D3*
Y60230D3*
Y57690D3*
Y55150D3*
Y52610D3*
Y50070D3*
Y47530D3*
Y44990D3*
Y42450D3*
Y39910D3*
Y37370D3*
Y34830D3*
Y32290D3*
Y29750D3*
X27000Y32291D3*
Y34831D3*
Y37371D3*
Y39911D3*
Y42451D3*
Y44991D3*
Y47531D3*
Y50071D3*
Y52611D3*
Y55151D3*
Y57691D3*
Y60231D3*
Y62771D3*
Y65311D3*
Y67851D3*
Y70391D3*
Y72931D3*
Y75471D3*
Y78011D3*
X11760D3*
Y75471D3*
Y72931D3*
Y70391D3*
Y67851D3*
Y65311D3*
Y62771D3*
Y60231D3*
Y57691D3*
Y55151D3*
Y52611D3*
Y50071D3*
Y47531D3*
Y44991D3*
Y42451D3*
Y39911D3*
Y37371D3*
Y34831D3*
Y32291D3*
Y29751D3*
M02*
