G04 DipTrace 2.3.1.0*
%INLA30KBD.GTO*%
%MOMM*%
%ADD10C,0.25*%
%ADD51C,0.196*%
%FSLAX53Y53*%
G04*
G71*
G90*
G75*
G01*
%LNTopSilk*%
%LPD*%
X32868Y24240D2*
D10*
X17628D1*
X32868Y21700D2*
X17628D1*
X32868Y24240D2*
Y21700D1*
X17628Y24240D2*
Y21700D1*
X36788Y87566D2*
X21548D1*
X36788Y85026D2*
X21548D1*
X36788Y87566D2*
Y85026D1*
X21548Y87566D2*
Y85026D1*
X47504Y36260D2*
X44964D1*
X47504Y31180D2*
Y36260D1*
Y31180D2*
X44964D1*
Y36260D1*
X47358Y41989D2*
X44818D1*
Y49609D1*
X47358D2*
X44818D1*
X47358Y41989D2*
Y49609D1*
X44103Y65878D2*
X38006D1*
X44103Y61560D2*
X38006D1*
X44103Y65370D2*
X38006D1*
Y62067D2*
X44103D1*
X41309Y62957D2*
X40800D1*
Y64481D1*
X41309D1*
Y62957D1*
X40419D2*
Y63719D1*
Y64481D1*
X41690Y62957D2*
Y63719D1*
Y64481D1*
X40419Y63719D2*
X39784D1*
X41690D2*
X42325D1*
X44103Y61560D2*
G03X44103Y65878I0J2159D01*
G01*
X38006D2*
G03X38006Y61560I0J-2159D01*
G01*
X44103Y62067D2*
G03X44103Y65370I-1J1651D01*
G01*
X38006D2*
G03X38006Y62067I1J-1651D01*
G01*
X42939Y77154D2*
Y83946D1*
X45739Y77154D2*
Y83946D1*
Y77154D2*
X42939D1*
X45739Y83946D2*
X42939D1*
X37687Y31574D2*
Y38366D1*
X40487Y31574D2*
Y38366D1*
Y31574D2*
X37687D1*
X40487Y38366D2*
X37687D1*
X42972Y46824D2*
Y43017D1*
X42967Y46832D2*
G03X42967Y43010I-2535J-1911D01*
G01*
X43335Y58387D2*
X43935D1*
X43635Y58687D2*
Y58087D1*
X41095Y55087D2*
X41101Y55264D1*
X41119Y55440D1*
X41150Y55615D1*
X41193Y55787D1*
X41248Y55955D1*
X41314Y56120D1*
X41392Y56279D1*
X41481Y56432D1*
X41580Y56579D1*
X41689Y56719D1*
X41808Y56851D1*
X41935Y56974D1*
X42071Y57088D1*
X42214Y57192D1*
X42365Y57286D1*
X42521Y57369D1*
X42683Y57441D1*
X42850Y57502D1*
X43020Y57551D1*
X43194Y57587D1*
X43369Y57612D1*
X43546Y57624D1*
X43723D1*
X43900Y57612D1*
X44076Y57587D1*
X44249Y57551D1*
X44420Y57502D1*
X44586Y57441D1*
X44748Y57369D1*
X44905Y57286D1*
X45055Y57192D1*
X45199Y57088D1*
X45334Y56974D1*
X45462Y56851D1*
X45580Y56719D1*
X45690Y56579D1*
X45789Y56432D1*
X45877Y56279D1*
X45955Y56120D1*
X46022Y55955D1*
X46076Y55787D1*
X46119Y55615D1*
X46150Y55440D1*
X46169Y55264D1*
X46175Y55087D1*
X46169Y54910D1*
X46150Y54734D1*
X46119Y54559D1*
X46076Y54387D1*
X46022Y54218D1*
X45955Y54054D1*
X45877Y53895D1*
X45789Y53741D1*
X45690Y53594D1*
X45580Y53455D1*
X45462Y53323D1*
X45334Y53200D1*
X45199Y53086D1*
X45055Y52982D1*
X44905Y52888D1*
X44748Y52805D1*
X44586Y52733D1*
X44420Y52672D1*
X44249Y52623D1*
X44076Y52586D1*
X43900Y52562D1*
X43723Y52549D1*
X43546D1*
X43369Y52562D1*
X43194Y52586D1*
X43020Y52623D1*
X42850Y52672D1*
X42683Y52733D1*
X42521Y52805D1*
X42365Y52888D1*
X42214Y52982D1*
X42071Y53086D1*
X41935Y53200D1*
X41808Y53323D1*
X41689Y53455D1*
X41580Y53594D1*
X41481Y53741D1*
X41392Y53895D1*
X41314Y54054D1*
X41248Y54218D1*
X41193Y54387D1*
X41150Y54559D1*
X41119Y54734D1*
X41101Y54910D1*
X41095Y55087D1*
X37924Y58314D2*
X38524D1*
X38224Y58614D2*
Y58015D1*
X35684Y55015D2*
X35690Y55192D1*
X35709Y55368D1*
X35740Y55542D1*
X35783Y55714D1*
X35837Y55883D1*
X35904Y56047D1*
X35981Y56207D1*
X36070Y56360D1*
X36169Y56507D1*
X36278Y56647D1*
X36397Y56778D1*
X36525Y56901D1*
X36660Y57015D1*
X36804Y57120D1*
X36954Y57213D1*
X37111Y57297D1*
X37273Y57369D1*
X37439Y57429D1*
X37610Y57478D1*
X37783Y57515D1*
X37959Y57540D1*
X38136Y57552D1*
X38313D1*
X38490Y57540D1*
X38665Y57515D1*
X38839Y57478D1*
X39009Y57429D1*
X39176Y57369D1*
X39338Y57297D1*
X39494Y57213D1*
X39645Y57120D1*
X39788Y57015D1*
X39924Y56901D1*
X40051Y56778D1*
X40170Y56647D1*
X40279Y56507D1*
X40378Y56360D1*
X40467Y56207D1*
X40545Y56047D1*
X40611Y55883D1*
X40666Y55714D1*
X40709Y55542D1*
X40739Y55368D1*
X40758Y55192D1*
X40764Y55015D1*
X40758Y54837D1*
X40739Y54661D1*
X40709Y54487D1*
X40666Y54315D1*
X40611Y54146D1*
X40545Y53982D1*
X40467Y53822D1*
X40378Y53669D1*
X40279Y53522D1*
X40170Y53382D1*
X40051Y53251D1*
X39924Y53128D1*
X39788Y53014D1*
X39645Y52910D1*
X39494Y52816D1*
X39338Y52732D1*
X39176Y52660D1*
X39009Y52600D1*
X38839Y52551D1*
X38665Y52514D1*
X38490Y52489D1*
X38313Y52477D1*
X38136D1*
X37959Y52489D1*
X37783Y52514D1*
X37610Y52551D1*
X37439Y52600D1*
X37273Y52660D1*
X37111Y52732D1*
X36954Y52816D1*
X36804Y52910D1*
X36660Y53014D1*
X36525Y53128D1*
X36397Y53251D1*
X36278Y53382D1*
X36169Y53522D1*
X36070Y53669D1*
X35981Y53822D1*
X35904Y53982D1*
X35837Y54146D1*
X35783Y54315D1*
X35740Y54487D1*
X35709Y54661D1*
X35690Y54837D1*
X35684Y55015D1*
X50978Y59998D2*
Y54927D1*
X48438D2*
X50978D1*
X48438Y59998D2*
Y54927D1*
Y59998D2*
X50978D1*
X37623Y73316D2*
Y78387D1*
X40163D2*
X37623D1*
X40163Y73316D2*
Y78387D1*
Y73316D2*
X37623D1*
X33231Y28382D2*
Y79380D1*
X20432D1*
Y28382D2*
Y79380D1*
X33231Y28280D2*
X25781Y28278D1*
X25780Y28384D2*
Y79381D1*
X12980D1*
Y28384D2*
Y79381D1*
X25781Y28281D2*
X18618D1*
X13031D2*
X18630D1*
X25203Y26099D2*
D51*
Y25128D1*
X25143Y24945D1*
X25081Y24885D1*
X24960Y24823D1*
X24838D1*
X24717Y24885D1*
X24657Y24945D1*
X24595Y25128D1*
Y25249D1*
X25595Y25855D2*
X25717Y25917D1*
X25900Y26098D1*
Y24823D1*
X28851Y89426D2*
Y88454D1*
X28790Y88272D1*
X28729Y88211D1*
X28608Y88150D1*
X28486D1*
X28365Y88211D1*
X28305Y88272D1*
X28243Y88454D1*
Y88575D1*
X29305Y89121D2*
Y89182D1*
X29365Y89304D1*
X29425Y89364D1*
X29547Y89424D1*
X29790D1*
X29911Y89364D1*
X29971Y89304D1*
X30033Y89182D1*
Y89061D1*
X29971Y88939D1*
X29851Y88758D1*
X29243Y88150D1*
X30094D1*
X45917Y38120D2*
Y37148D1*
X45857Y36966D1*
X45795Y36906D1*
X45674Y36844D1*
X45552D1*
X45431Y36906D1*
X45371Y36966D1*
X45309Y37148D1*
Y37269D1*
X46431Y38119D2*
X47098D1*
X46734Y37633D1*
X46917D1*
X47038Y37572D1*
X47098Y37512D1*
X47160Y37330D1*
Y37209D1*
X47098Y37026D1*
X46977Y36904D1*
X46795Y36844D1*
X46612D1*
X46431Y36904D1*
X46371Y36966D1*
X46309Y37087D1*
X45740Y51469D2*
Y50498D1*
X45680Y50315D1*
X45618Y50255D1*
X45497Y50193D1*
X45375D1*
X45254Y50255D1*
X45194Y50315D1*
X45132Y50498D1*
Y50618D1*
X46740Y50193D2*
Y51468D1*
X46132Y50618D1*
X47043D1*
X40220Y67738D2*
X40706Y67130D1*
Y66461D1*
X41192Y67738D2*
X40706Y67130D1*
X41584Y67493D2*
X41706Y67555D1*
X41889Y67736D1*
Y66461D1*
X41687Y79776D2*
Y80322D1*
X41625Y80505D1*
X41565Y80567D1*
X41444Y80627D1*
X41322D1*
X41201Y80567D1*
X41139Y80505D1*
X41079Y80322D1*
Y79776D1*
X42355D1*
X41687Y80202D2*
X42355Y80627D1*
X41323Y81019D2*
X41262Y81141D1*
X41080Y81324D1*
X42355D1*
X36435Y33923D2*
Y34469D1*
X36373Y34652D1*
X36313Y34714D1*
X36192Y34774D1*
X36070D1*
X35949Y34714D1*
X35887Y34652D1*
X35827Y34469D1*
Y33923D1*
X37103D1*
X36435Y34349D2*
X37103Y34774D1*
X36132Y35228D2*
X36071D1*
X35949Y35288D1*
X35889Y35349D1*
X35828Y35471D1*
Y35714D1*
X35889Y35834D1*
X35949Y35895D1*
X36071Y35956D1*
X36192D1*
X36314Y35895D1*
X36495Y35774D1*
X37103Y35166D1*
Y36017D1*
X39341Y49955D2*
Y48679D1*
X39766D1*
X39949Y48741D1*
X40071Y48861D1*
X40131Y48984D1*
X40192Y49165D1*
Y49469D1*
X40131Y49652D1*
X40071Y49773D1*
X39949Y49895D1*
X39766Y49955D1*
X39341D1*
X40584Y49711D2*
X40706Y49773D1*
X40889Y49954D1*
Y48679D1*
X43469Y60243D2*
X43408Y60364D1*
X43286Y60486D1*
X43166Y60547D1*
X42923D1*
X42801Y60486D1*
X42680Y60364D1*
X42618Y60243D1*
X42558Y60061D1*
Y59756D1*
X42618Y59575D1*
X42680Y59453D1*
X42801Y59332D1*
X42923Y59271D1*
X43166D1*
X43286Y59332D1*
X43408Y59453D1*
X43469Y59575D1*
X43923Y60242D2*
Y60302D1*
X43983Y60425D1*
X44043Y60485D1*
X44166Y60545D1*
X44408D1*
X44529Y60485D1*
X44590Y60425D1*
X44651Y60302D1*
Y60182D1*
X44590Y60060D1*
X44469Y59878D1*
X43861Y59271D1*
X44712D1*
X38058Y60171D2*
X37998Y60292D1*
X37876Y60414D1*
X37755Y60474D1*
X37512D1*
X37390Y60414D1*
X37269Y60292D1*
X37208Y60171D1*
X37147Y59989D1*
Y59684D1*
X37208Y59503D1*
X37269Y59381D1*
X37390Y59260D1*
X37512Y59198D1*
X37755D1*
X37876Y59260D1*
X37998Y59381D1*
X38058Y59503D1*
X38573Y60473D2*
X39239D1*
X38876Y59987D1*
X39058D1*
X39179Y59927D1*
X39239Y59866D1*
X39301Y59684D1*
Y59563D1*
X39239Y59381D1*
X39119Y59259D1*
X38936Y59198D1*
X38754D1*
X38573Y59259D1*
X38512Y59320D1*
X38450Y59441D1*
X46881Y57267D2*
X46760Y57206D1*
X46638Y57084D1*
X46578Y56963D1*
Y56721D1*
X46638Y56598D1*
X46760Y56478D1*
X46881Y56416D1*
X47064Y56356D1*
X47368D1*
X47549Y56416D1*
X47672Y56478D1*
X47792Y56598D1*
X47854Y56721D1*
Y56963D1*
X47792Y57084D1*
X47672Y57206D1*
X47549Y57267D1*
X47854Y58267D2*
X46579D1*
X47429Y57659D1*
Y58570D1*
X36067Y75959D2*
X35946Y75898D1*
X35824Y75776D1*
X35764Y75656D1*
Y75413D1*
X35824Y75291D1*
X35946Y75170D1*
X36067Y75108D1*
X36249Y75048D1*
X36554D1*
X36735Y75108D1*
X36857Y75170D1*
X36978Y75291D1*
X37040Y75413D1*
Y75656D1*
X36978Y75776D1*
X36857Y75898D1*
X36735Y75959D1*
X36008Y76351D2*
X35946Y76473D1*
X35765Y76656D1*
X37040D1*
M02*
