G04 DipTrace 2.3.1.0*
%INLA30KBD.GBL*%
%MOMM*%
%ADD13C,0.33*%
%ADD14C,0.635*%
%ADD15R,1.5X1.5*%
%ADD16C,1.5*%
%ADD17C,1.219*%
%ADD18C,1.65*%
%ADD19C,1.27*%
%ADD20R,1.27X1.27*%
%ADD21R,1.6X1.6*%
%ADD22C,1.6*%
%ADD23C,1.524*%
%ADD24C,1.524*%
%FSLAX53Y53*%
G04*
G71*
G90*
G75*
G01*
%LNBottom*%
%LPD*%
X34452Y34830D2*
D13*
X31798D1*
X30467Y33500D1*
X13092D1*
X11760Y34831D1*
X34452Y29750D2*
X31576D1*
X30287Y31039D1*
X13013D1*
X11760Y32291D1*
X39087Y29795D2*
X34497D1*
X34452Y29750D1*
X38224Y56285D2*
Y63301D1*
X38642Y63719D1*
X19212Y52610D2*
X24010D1*
X25287Y53886D1*
X33188D1*
X34452Y55150D1*
X25287Y53886D2*
Y86224D1*
X25358Y86296D1*
X22818D2*
X25358D1*
X41703Y44921D2*
Y51885D1*
X43635Y53818D1*
X46234Y34990D2*
X44140D1*
X42039Y37091D1*
Y44585D1*
X41703Y44921D1*
X43635Y53818D2*
X45271D1*
X47146Y55693D1*
Y59981D1*
X49708Y62543D1*
X34452Y52610D2*
X29612D1*
X28359Y51356D1*
X17968D1*
X17426Y51899D1*
Y53364D1*
X19212Y55150D1*
X46088Y45799D2*
X47531D1*
X49897Y48165D1*
Y52194D1*
X49708Y52383D1*
X39087Y40145D2*
Y44845D1*
X39163Y44921D1*
X46234Y32450D2*
X34612D1*
X34452Y32290D1*
X44339Y75375D2*
X43497D1*
X38893Y70772D1*
X27000Y29751D2*
D14*
X29649D1*
X35711Y23689D1*
X41211D1*
X48522Y31000D1*
Y40825D1*
X46088Y43259D1*
X27898Y86296D2*
Y87223D1*
X28883Y88208D1*
X41857D1*
X44339Y85725D1*
X32978Y86296D2*
D13*
Y66784D1*
X34452Y65310D1*
X30438Y86296D2*
Y66784D1*
X34452Y62770D1*
X14426Y92389D2*
D14*
X51863D1*
X14426Y91758D2*
X51863D1*
X14426Y91126D2*
X51863D1*
X14426Y90494D2*
X51863D1*
X14426Y89863D2*
X51863D1*
X14426Y89231D2*
X51863D1*
X14426Y88599D2*
X27813D1*
X42932D2*
X51853D1*
X14426Y87968D2*
X27178D1*
X43557D2*
X51853D1*
X14426Y87336D2*
X26850D1*
X44192D2*
X51853D1*
X14426Y86704D2*
X26473D1*
X37008D2*
X41892D1*
X45531D2*
X51853D1*
X14426Y86073D2*
X26434D1*
X37008D2*
X42527D1*
X45859D2*
X51853D1*
X14426Y85441D2*
X26701D1*
X37008D2*
X42805D1*
X45868D2*
X51853D1*
X14426Y84809D2*
X29539D1*
X33883D2*
X43092D1*
X45591D2*
X51853D1*
X14426Y84178D2*
X29539D1*
X33883D2*
X51853D1*
X14426Y83546D2*
X29539D1*
X33883D2*
X51853D1*
X14426Y82914D2*
X29539D1*
X33883D2*
X51853D1*
X14426Y82283D2*
X29539D1*
X33883D2*
X38350D1*
X39439D2*
X51843D1*
X14426Y81651D2*
X29539D1*
X33883D2*
X37586D1*
X40203D2*
X51843D1*
X14426Y81019D2*
X29539D1*
X33883D2*
X37397D1*
X40392D2*
X51843D1*
X14426Y80388D2*
X29539D1*
X33883D2*
X37506D1*
X40282D2*
X51843D1*
X14426Y79756D2*
X29539D1*
X33883D2*
X38012D1*
X39776D2*
X51843D1*
X14426Y79124D2*
X18268D1*
X20161D2*
X26047D1*
X27950D2*
X29539D1*
X35401D2*
X51843D1*
X14426Y78493D2*
X17811D1*
X20617D2*
X25600D1*
X28406D2*
X29539D1*
X35857D2*
X51843D1*
X14426Y77861D2*
X17732D1*
X20687D2*
X25521D1*
X28475D2*
X29539D1*
X35927D2*
X51843D1*
X14426Y77229D2*
X17960D1*
X20468D2*
X25749D1*
X28257D2*
X29539D1*
X35708D2*
X51843D1*
X14426Y76598D2*
X18278D1*
X20141D2*
X26066D1*
X27930D2*
X29539D1*
X35381D2*
X43410D1*
X45263D2*
X51843D1*
X14426Y75966D2*
X17811D1*
X20607D2*
X25600D1*
X28396D2*
X29539D1*
X35847D2*
X42844D1*
X45779D2*
X51834D1*
X14426Y75334D2*
X17732D1*
X20687D2*
X25521D1*
X28475D2*
X29539D1*
X35927D2*
X42209D1*
X45898D2*
X51834D1*
X14426Y74703D2*
X17950D1*
X20468D2*
X25739D1*
X28257D2*
X29539D1*
X35708D2*
X41574D1*
X45739D2*
X51834D1*
X14426Y74071D2*
X18298D1*
X20121D2*
X26086D1*
X27920D2*
X29539D1*
X35361D2*
X40949D1*
X45134D2*
X51834D1*
X14426Y73439D2*
X17821D1*
X20607D2*
X25610D1*
X28396D2*
X29539D1*
X35847D2*
X40314D1*
X42813D2*
X51834D1*
X14436Y72808D2*
X17732D1*
X20697D2*
X25521D1*
X28485D2*
X29539D1*
X35937D2*
X39679D1*
X42178D2*
X51834D1*
X14436Y72176D2*
X17940D1*
X20478D2*
X25729D1*
X28267D2*
X29539D1*
X35718D2*
X38538D1*
X41543D2*
X51834D1*
X14436Y71544D2*
X18317D1*
X20111D2*
X26106D1*
X27900D2*
X29539D1*
X35351D2*
X37625D1*
X40917D2*
X51834D1*
X14436Y70913D2*
X17821D1*
X20597D2*
X25610D1*
X28386D2*
X29539D1*
X35837D2*
X37407D1*
X40382D2*
X51834D1*
X14436Y70281D2*
X17732D1*
X20697D2*
X25521D1*
X28485D2*
X29539D1*
X35937D2*
X37486D1*
X40302D2*
X51824D1*
X14436Y69649D2*
X17930D1*
X20488D2*
X25719D1*
X28277D2*
X29539D1*
X35728D2*
X37933D1*
X39846D2*
X51824D1*
X14436Y69018D2*
X18337D1*
X20091D2*
X26126D1*
X27880D2*
X29539D1*
X35331D2*
X51824D1*
X14436Y68386D2*
X17831D1*
X20597D2*
X25620D1*
X28386D2*
X29539D1*
X35837D2*
X51824D1*
X14436Y67754D2*
X17732D1*
X20697D2*
X25521D1*
X28485D2*
X29539D1*
X35937D2*
X51824D1*
X14436Y67123D2*
X17930D1*
X20498D2*
X25719D1*
X28287D2*
X29539D1*
X35738D2*
X51824D1*
X14436Y66491D2*
X18357D1*
X20072D2*
X26146D1*
X27860D2*
X29589D1*
X35312D2*
X51824D1*
X14436Y65859D2*
X17831D1*
X20588D2*
X25620D1*
X28376D2*
X30115D1*
X35828D2*
X51824D1*
X14436Y65228D2*
X17732D1*
X20697D2*
X25521D1*
X28485D2*
X30750D1*
X35937D2*
X51824D1*
X14436Y64596D2*
X17921D1*
X20508D2*
X25709D1*
X28297D2*
X31375D1*
X35748D2*
X37645D1*
X39638D2*
X42467D1*
X44469D2*
X51824D1*
X14436Y63964D2*
X18377D1*
X20052D2*
X26166D1*
X27840D2*
X32010D1*
X35292D2*
X37318D1*
X39965D2*
X42150D1*
X44787D2*
X51814D1*
X14436Y63333D2*
X17841D1*
X20578D2*
X25630D1*
X28366D2*
X32645D1*
X35818D2*
X37328D1*
X39925D2*
X42180D1*
X44757D2*
X51814D1*
X14436Y62701D2*
X17732D1*
X20697D2*
X25511D1*
X28485D2*
X32972D1*
X35937D2*
X37328D1*
X39489D2*
X42626D1*
X44311D2*
X51814D1*
X14436Y62069D2*
X17911D1*
X20518D2*
X25699D1*
X28297D2*
X33151D1*
X35758D2*
X37328D1*
X39122D2*
X51814D1*
X14436Y61438D2*
X18397D1*
X20032D2*
X26185D1*
X27821D2*
X33637D1*
X35272D2*
X37328D1*
X39122D2*
X51814D1*
X14436Y60806D2*
X17851D1*
X20578D2*
X25640D1*
X28366D2*
X33091D1*
X35818D2*
X37328D1*
X39122D2*
X51814D1*
X14436Y60174D2*
X17722D1*
X20697D2*
X25511D1*
X28485D2*
X32962D1*
X35937D2*
X37328D1*
X39122D2*
X51814D1*
X14436Y59543D2*
X17901D1*
X20518D2*
X25689D1*
X28307D2*
X33141D1*
X35758D2*
X37328D1*
X39122D2*
X51814D1*
X14436Y58911D2*
X18417D1*
X20002D2*
X26205D1*
X27801D2*
X33657D1*
X35242D2*
X37328D1*
X39122D2*
X51814D1*
X14436Y58279D2*
X17851D1*
X20568D2*
X25640D1*
X28356D2*
X33091D1*
X35808D2*
X37328D1*
X39122D2*
X51814D1*
X14436Y57648D2*
X17722D1*
X20697D2*
X25511D1*
X28485D2*
X32962D1*
X35937D2*
X36693D1*
X39757D2*
X42100D1*
X45174D2*
X51804D1*
X14436Y57016D2*
X17891D1*
X20528D2*
X25689D1*
X28317D2*
X33131D1*
X35768D2*
X36693D1*
X39757D2*
X42100D1*
X45174D2*
X51804D1*
X14436Y56384D2*
X18436D1*
X19982D2*
X26225D1*
X27771D2*
X33825D1*
X35083D2*
X36693D1*
X39757D2*
X42100D1*
X45174D2*
X51804D1*
X14436Y55753D2*
X17861D1*
X20568D2*
X25650D1*
X28356D2*
X36693D1*
X39757D2*
X42100D1*
X45174D2*
X51804D1*
X14436Y55121D2*
X17722D1*
X20697D2*
X25511D1*
X28485D2*
X36693D1*
X39757D2*
X42100D1*
X45174D2*
X51804D1*
X14436Y54489D2*
X17305D1*
X20538D2*
X25679D1*
X28327D2*
X51804D1*
X14436Y53858D2*
X16680D1*
X19873D2*
X26255D1*
X27751D2*
X33706D1*
X35202D2*
X51804D1*
X14446Y53226D2*
X16522D1*
X18534D2*
X25650D1*
X28346D2*
X28983D1*
X35798D2*
X48480D1*
X50929D2*
X51804D1*
X14446Y52594D2*
X16522D1*
X18325D2*
X25511D1*
X35937D2*
X48222D1*
X51187D2*
X51804D1*
X14446Y51963D2*
X16522D1*
X35778D2*
X48272D1*
X51147D2*
X51804D1*
X14446Y51331D2*
X16750D1*
X35173D2*
X48668D1*
X50800D2*
X51794D1*
X14446Y50699D2*
X17385D1*
X35788D2*
X48996D1*
X50800D2*
X51794D1*
X14446Y50068D2*
X17722D1*
X35937D2*
X48996D1*
X50800D2*
X51794D1*
X14446Y49436D2*
X17871D1*
X35788D2*
X45116D1*
X47059D2*
X48996D1*
X50800D2*
X51794D1*
X14446Y48804D2*
X18496D1*
X35163D2*
X44680D1*
X47496D2*
X48996D1*
X50800D2*
X51794D1*
X14446Y48173D2*
X17881D1*
X35788D2*
X44610D1*
X47565D2*
X48659D1*
X50800D2*
X51794D1*
X14446Y47541D2*
X17722D1*
X35937D2*
X44849D1*
X47327D2*
X48024D1*
X50522D2*
X51794D1*
X14446Y46909D2*
X17871D1*
X35798D2*
X45136D1*
X47039D2*
X47389D1*
X49887D2*
X51794D1*
X14446Y46278D2*
X18476D1*
X35193D2*
X44680D1*
X49262D2*
X51794D1*
X14446Y45646D2*
X17881D1*
X35778D2*
X38012D1*
X40312D2*
X44610D1*
X48627D2*
X51784D1*
X14446Y45014D2*
X17722D1*
X35937D2*
X37794D1*
X40531D2*
X44839D1*
X47883D2*
X51784D1*
X14446Y44383D2*
X17861D1*
X35798D2*
X37903D1*
X40421D2*
X44600D1*
X47575D2*
X51784D1*
X14446Y43751D2*
X18446D1*
X35212D2*
X38181D1*
X39985D2*
X44600D1*
X47575D2*
X51784D1*
X14446Y43119D2*
X17891D1*
X35768D2*
X38181D1*
X39985D2*
X44600D1*
X47694D2*
X51784D1*
X14446Y42488D2*
X17722D1*
X35937D2*
X38181D1*
X39985D2*
X44600D1*
X48319D2*
X51784D1*
X14446Y41856D2*
X17851D1*
X35808D2*
X38181D1*
X39985D2*
X44600D1*
X48954D2*
X51784D1*
X14446Y41224D2*
X18427D1*
X35242D2*
X37983D1*
X40193D2*
X46654D1*
X49490D2*
X51784D1*
X14446Y40593D2*
X17901D1*
X35768D2*
X37596D1*
X40580D2*
X47289D1*
X49579D2*
X51784D1*
X14446Y39961D2*
X17722D1*
X35937D2*
X37536D1*
X40640D2*
X47468D1*
X49579D2*
X51784D1*
X14446Y39329D2*
X17851D1*
X35818D2*
X37764D1*
X40402D2*
X47468D1*
X49579D2*
X51774D1*
X14446Y38698D2*
X18407D1*
X35262D2*
X38637D1*
X39538D2*
X47468D1*
X49579D2*
X51774D1*
X14446Y38066D2*
X17911D1*
X35758D2*
X47468D1*
X49579D2*
X51774D1*
X14446Y37434D2*
X17722D1*
X35937D2*
X47468D1*
X49579D2*
X51774D1*
X14446Y36803D2*
X17841D1*
X35818D2*
X47468D1*
X49579D2*
X51774D1*
X14446Y36171D2*
X18387D1*
X35282D2*
X47468D1*
X49579D2*
X51774D1*
X14446Y35539D2*
X17911D1*
X35748D2*
X47468D1*
X49579D2*
X51774D1*
X14446Y34908D2*
X17732D1*
X35937D2*
X47468D1*
X49579D2*
X51774D1*
X35828Y34276D2*
X47468D1*
X49579D2*
X51774D1*
X35302Y33644D2*
X44749D1*
X49579D2*
X51774D1*
X49579Y33013D2*
X51764D1*
X49579Y32381D2*
X51764D1*
X49579Y31749D2*
X51764D1*
X49579Y31118D2*
X51764D1*
X49430Y30486D2*
X51764D1*
X14456Y29854D2*
X17732D1*
X20697D2*
X25511D1*
X48845D2*
X51764D1*
X14456Y29223D2*
X17831D1*
X20597D2*
X25511D1*
X48210D2*
X51764D1*
X14456Y28591D2*
X18327D1*
X20101D2*
X25511D1*
X28485D2*
X29341D1*
X47575D2*
X51764D1*
X14456Y27959D2*
X29976D1*
X46950D2*
X51764D1*
X14456Y27328D2*
X30611D1*
X46315D2*
X51754D1*
X14456Y26696D2*
X31236D1*
X45680D2*
X51754D1*
X14456Y26064D2*
X31871D1*
X45055D2*
X51754D1*
X14456Y25433D2*
X32506D1*
X44420D2*
X51754D1*
X14456Y24801D2*
X33131D1*
X43785D2*
X51754D1*
X14456Y24169D2*
X18069D1*
X19724D2*
X20609D1*
X22264D2*
X23149D1*
X24804D2*
X25689D1*
X27344D2*
X30115D1*
X33079D2*
X33766D1*
X43160D2*
X51754D1*
X14456Y23538D2*
X17534D1*
X27890D2*
X30115D1*
X33079D2*
X34401D1*
X42525D2*
X51754D1*
X14456Y22906D2*
X17415D1*
X27999D2*
X30115D1*
X33079D2*
X35046D1*
X41880D2*
X51754D1*
X14456Y22274D2*
X17593D1*
X27821D2*
X30115D1*
X33079D2*
X51754D1*
X14456Y21643D2*
X18317D1*
X19476D2*
X20857D1*
X22016D2*
X23397D1*
X24556D2*
X25937D1*
X27096D2*
X30115D1*
X33079D2*
X51754D1*
X14456Y21011D2*
X51744D1*
X14456Y20379D2*
X51744D1*
X14456Y19748D2*
X51744D1*
X14456Y19116D2*
X51744D1*
X14456Y18484D2*
X51744D1*
X14456Y17853D2*
X51744D1*
X14456Y17221D2*
X51744D1*
X14456Y16589D2*
X51744D1*
X14456Y15958D2*
X51744D1*
X14456Y15326D2*
X51744D1*
X14456Y14694D2*
X51734D1*
X14466Y14063D2*
X51734D1*
X28423Y28763D2*
Y28328D1*
X25577D1*
Y30204D1*
X20554Y30201D1*
X20587Y30115D1*
X20635Y29750D1*
X20600Y29435D1*
X20495Y29136D1*
X20328Y28867D1*
X20105Y28642D1*
X19837Y28472D1*
X19539Y28365D1*
X19225Y28327D1*
X18909Y28360D1*
X18609Y28461D1*
X18339Y28626D1*
X18112Y28847D1*
X17939Y29113D1*
X17830Y29410D1*
X17789Y29724D1*
X17818Y30040D1*
X17871Y30200D1*
X14382Y30201D1*
X14390Y28569D1*
X14398Y13756D1*
X51800Y13757D1*
X51929Y93022D1*
X14358Y93021D1*
X14388Y34333D1*
X17884Y34338D1*
X17830Y34490D1*
X17789Y34804D1*
X17818Y35120D1*
X17917Y35421D1*
X18080Y35693D1*
X18299Y35922D1*
X18572Y36100D1*
X18339Y36246D1*
X18112Y36467D1*
X17939Y36733D1*
X17830Y37030D1*
X17789Y37344D1*
X17818Y37660D1*
X17917Y37961D1*
X18080Y38233D1*
X18299Y38462D1*
X18572Y38640D1*
X18339Y38786D1*
X18112Y39007D1*
X17939Y39273D1*
X17830Y39570D1*
X17789Y39884D1*
X17818Y40200D1*
X17917Y40501D1*
X18080Y40773D1*
X18299Y41002D1*
X18572Y41180D1*
X18339Y41326D1*
X18112Y41547D1*
X17939Y41813D1*
X17830Y42110D1*
X17789Y42424D1*
X17818Y42740D1*
X17917Y43041D1*
X18080Y43313D1*
X18299Y43542D1*
X18572Y43720D1*
X18339Y43866D1*
X18112Y44087D1*
X17939Y44353D1*
X17830Y44650D1*
X17789Y44964D1*
X17818Y45280D1*
X17917Y45581D1*
X18080Y45853D1*
X18299Y46082D1*
X18572Y46260D1*
X18339Y46406D1*
X18112Y46627D1*
X17939Y46893D1*
X17830Y47190D1*
X17789Y47504D1*
X17818Y47820D1*
X17917Y48121D1*
X18080Y48393D1*
X18299Y48622D1*
X18572Y48800D1*
X18339Y48946D1*
X18112Y49167D1*
X17939Y49433D1*
X17830Y49730D1*
X17789Y50044D1*
X17818Y50360D1*
X17871Y50520D1*
X17724Y50555D1*
X17444Y50702D1*
X16833Y51306D1*
X16656Y51567D1*
X16588Y51899D1*
Y53364D1*
X16647Y53674D1*
X16833Y53957D1*
X17808Y54932D1*
X17789Y55124D1*
X17818Y55440D1*
X17917Y55741D1*
X18080Y56013D1*
X18299Y56242D1*
X18572Y56420D1*
X18339Y56566D1*
X18112Y56787D1*
X17939Y57053D1*
X17830Y57350D1*
X17789Y57664D1*
X17818Y57980D1*
X17917Y58281D1*
X18080Y58553D1*
X18299Y58782D1*
X18572Y58960D1*
X18339Y59106D1*
X18112Y59327D1*
X17939Y59593D1*
X17830Y59890D1*
X17789Y60204D1*
X17818Y60520D1*
X17917Y60821D1*
X18080Y61093D1*
X18299Y61322D1*
X18572Y61500D1*
X18339Y61646D1*
X18112Y61867D1*
X17939Y62133D1*
X17830Y62430D1*
X17789Y62744D1*
X17818Y63060D1*
X17917Y63361D1*
X18080Y63633D1*
X18299Y63862D1*
X18572Y64040D1*
X18339Y64186D1*
X18112Y64407D1*
X17939Y64673D1*
X17830Y64970D1*
X17789Y65284D1*
X17818Y65600D1*
X17917Y65901D1*
X18080Y66173D1*
X18299Y66402D1*
X18572Y66580D1*
X18339Y66726D1*
X18112Y66947D1*
X17939Y67213D1*
X17830Y67510D1*
X17789Y67824D1*
X17818Y68140D1*
X17917Y68441D1*
X18080Y68713D1*
X18299Y68942D1*
X18572Y69120D1*
X18339Y69266D1*
X18112Y69487D1*
X17939Y69753D1*
X17830Y70050D1*
X17789Y70364D1*
X17818Y70680D1*
X17917Y70981D1*
X18080Y71253D1*
X18299Y71482D1*
X18572Y71660D1*
X18339Y71806D1*
X18112Y72027D1*
X17939Y72293D1*
X17830Y72590D1*
X17789Y72904D1*
X17818Y73220D1*
X17917Y73521D1*
X18080Y73793D1*
X18299Y74022D1*
X18572Y74200D1*
X18339Y74346D1*
X18112Y74567D1*
X17939Y74833D1*
X17830Y75130D1*
X17789Y75444D1*
X17818Y75760D1*
X17917Y76061D1*
X18080Y76333D1*
X18299Y76562D1*
X18572Y76740D1*
X18339Y76886D1*
X18112Y77107D1*
X17939Y77373D1*
X17830Y77670D1*
X17789Y77984D1*
X17818Y78300D1*
X17917Y78601D1*
X18080Y78873D1*
X18299Y79102D1*
X18563Y79277D1*
X18859Y79389D1*
X19173Y79433D1*
X19489Y79406D1*
X19791Y79310D1*
X20064Y79150D1*
X20295Y78933D1*
X20472Y78670D1*
X20587Y78375D1*
X20635Y78010D1*
X20600Y77695D1*
X20495Y77396D1*
X20328Y77127D1*
X20105Y76902D1*
X19846Y76737D1*
X20064Y76610D1*
X20295Y76393D1*
X20472Y76130D1*
X20587Y75835D1*
X20635Y75470D1*
X20600Y75155D1*
X20495Y74856D1*
X20328Y74587D1*
X20105Y74362D1*
X19846Y74197D1*
X20064Y74070D1*
X20295Y73853D1*
X20472Y73590D1*
X20587Y73295D1*
X20635Y72930D1*
X20600Y72615D1*
X20495Y72316D1*
X20328Y72047D1*
X20105Y71822D1*
X19846Y71657D1*
X20064Y71530D1*
X20295Y71313D1*
X20472Y71050D1*
X20587Y70755D1*
X20635Y70390D1*
X20600Y70075D1*
X20495Y69776D1*
X20328Y69507D1*
X20105Y69282D1*
X19846Y69117D1*
X20064Y68990D1*
X20295Y68773D1*
X20472Y68510D1*
X20587Y68215D1*
X20635Y67850D1*
X20600Y67535D1*
X20495Y67236D1*
X20328Y66967D1*
X20105Y66742D1*
X19846Y66577D1*
X20064Y66450D1*
X20295Y66233D1*
X20472Y65970D1*
X20587Y65675D1*
X20635Y65310D1*
X20600Y64995D1*
X20495Y64696D1*
X20328Y64427D1*
X20105Y64202D1*
X19846Y64037D1*
X20064Y63910D1*
X20295Y63693D1*
X20472Y63430D1*
X20587Y63135D1*
X20635Y62770D1*
X20600Y62455D1*
X20495Y62156D1*
X20328Y61887D1*
X20105Y61662D1*
X19846Y61497D1*
X20064Y61370D1*
X20295Y61153D1*
X20472Y60890D1*
X20587Y60595D1*
X20635Y60230D1*
X20600Y59915D1*
X20495Y59616D1*
X20328Y59347D1*
X20105Y59122D1*
X19846Y58957D1*
X20064Y58830D1*
X20295Y58613D1*
X20472Y58350D1*
X20587Y58055D1*
X20635Y57690D1*
X20600Y57375D1*
X20495Y57076D1*
X20328Y56807D1*
X20105Y56582D1*
X19846Y56417D1*
X20064Y56290D1*
X20295Y56073D1*
X20472Y55810D1*
X20587Y55515D1*
X20635Y55150D1*
X20600Y54835D1*
X20495Y54536D1*
X20328Y54267D1*
X20105Y54042D1*
X19837Y53872D1*
X19539Y53765D1*
X19225Y53727D1*
X18998Y53750D1*
X18268Y53021D1*
X18264Y52243D1*
X18603Y52194D1*
X25637D1*
X25577Y52586D1*
X25607Y52901D1*
X25706Y53202D1*
X25868Y53474D1*
X26087Y53703D1*
X26361Y53881D1*
X26127Y54027D1*
X25900Y54248D1*
X25728Y54514D1*
X25618Y54811D1*
X25577Y55126D1*
X25607Y55441D1*
X25706Y55742D1*
X25868Y56014D1*
X26087Y56243D1*
X26361Y56421D1*
X26127Y56567D1*
X25900Y56788D1*
X25728Y57054D1*
X25618Y57351D1*
X25577Y57666D1*
X25607Y57981D1*
X25706Y58282D1*
X25868Y58554D1*
X26087Y58783D1*
X26361Y58961D1*
X26127Y59107D1*
X25900Y59328D1*
X25728Y59594D1*
X25618Y59891D1*
X25577Y60206D1*
X25607Y60521D1*
X25706Y60822D1*
X25868Y61094D1*
X26087Y61323D1*
X26361Y61501D1*
X26127Y61647D1*
X25900Y61868D1*
X25728Y62134D1*
X25618Y62431D1*
X25577Y62746D1*
X25607Y63061D1*
X25706Y63362D1*
X25868Y63634D1*
X26087Y63863D1*
X26361Y64041D1*
X26127Y64187D1*
X25900Y64408D1*
X25728Y64674D1*
X25618Y64971D1*
X25577Y65286D1*
X25607Y65601D1*
X25706Y65902D1*
X25868Y66174D1*
X26087Y66403D1*
X26361Y66581D1*
X26127Y66727D1*
X25900Y66948D1*
X25728Y67214D1*
X25618Y67511D1*
X25577Y67826D1*
X25607Y68141D1*
X25706Y68442D1*
X25868Y68714D1*
X26087Y68943D1*
X26361Y69121D1*
X26127Y69267D1*
X25900Y69488D1*
X25728Y69754D1*
X25618Y70051D1*
X25577Y70366D1*
X25607Y70681D1*
X25706Y70982D1*
X25868Y71254D1*
X26087Y71483D1*
X26361Y71661D1*
X26127Y71807D1*
X25900Y72028D1*
X25728Y72294D1*
X25618Y72591D1*
X25577Y72906D1*
X25607Y73221D1*
X25706Y73522D1*
X25868Y73794D1*
X26087Y74023D1*
X26361Y74201D1*
X26127Y74347D1*
X25900Y74568D1*
X25728Y74834D1*
X25618Y75131D1*
X25577Y75446D1*
X25607Y75761D1*
X25706Y76062D1*
X25868Y76334D1*
X26087Y76563D1*
X26361Y76741D1*
X26127Y76887D1*
X25900Y77108D1*
X25728Y77374D1*
X25618Y77671D1*
X25577Y77986D1*
X25607Y78301D1*
X25706Y78602D1*
X25868Y78874D1*
X26087Y79103D1*
X26351Y79278D1*
X26648Y79390D1*
X26962Y79434D1*
X27277Y79407D1*
X27579Y79311D1*
X27852Y79151D1*
X28084Y78934D1*
X28261Y78672D1*
X28376Y78376D1*
X28423Y78011D1*
X28388Y77696D1*
X28284Y77397D1*
X28116Y77128D1*
X27893Y76903D1*
X27634Y76739D1*
X27852Y76611D1*
X28084Y76394D1*
X28261Y76132D1*
X28376Y75836D1*
X28423Y75471D1*
X28388Y75156D1*
X28284Y74857D1*
X28116Y74588D1*
X27893Y74363D1*
X27634Y74199D1*
X27852Y74071D1*
X28084Y73854D1*
X28261Y73592D1*
X28376Y73296D1*
X28423Y72931D1*
X28388Y72616D1*
X28284Y72317D1*
X28116Y72048D1*
X27893Y71823D1*
X27634Y71659D1*
X27852Y71531D1*
X28084Y71314D1*
X28261Y71052D1*
X28376Y70756D1*
X28423Y70391D1*
X28388Y70076D1*
X28284Y69777D1*
X28116Y69508D1*
X27893Y69283D1*
X27634Y69119D1*
X27852Y68991D1*
X28084Y68774D1*
X28261Y68512D1*
X28376Y68216D1*
X28423Y67851D1*
X28388Y67536D1*
X28284Y67237D1*
X28116Y66968D1*
X27893Y66743D1*
X27634Y66579D1*
X27852Y66451D1*
X28084Y66234D1*
X28261Y65972D1*
X28376Y65676D1*
X28423Y65311D1*
X28388Y64996D1*
X28284Y64697D1*
X28116Y64428D1*
X27893Y64203D1*
X27634Y64039D1*
X27852Y63911D1*
X28084Y63694D1*
X28261Y63432D1*
X28376Y63136D1*
X28423Y62771D1*
X28388Y62456D1*
X28284Y62157D1*
X28116Y61888D1*
X27893Y61663D1*
X27634Y61499D1*
X27852Y61371D1*
X28084Y61154D1*
X28261Y60892D1*
X28376Y60596D1*
X28423Y60231D1*
X28388Y59916D1*
X28284Y59617D1*
X28116Y59348D1*
X27893Y59123D1*
X27634Y58959D1*
X27852Y58831D1*
X28084Y58614D1*
X28261Y58352D1*
X28376Y58056D1*
X28423Y57691D1*
X28388Y57376D1*
X28284Y57077D1*
X28116Y56808D1*
X27893Y56583D1*
X27634Y56419D1*
X27852Y56291D1*
X28084Y56074D1*
X28261Y55812D1*
X28376Y55516D1*
X28423Y55151D1*
X28388Y54836D1*
X28284Y54537D1*
X28116Y54268D1*
X27893Y54043D1*
X27634Y53879D1*
X27852Y53751D1*
X28084Y53534D1*
X28261Y53272D1*
X28376Y52976D1*
X28422Y52602D1*
X29020Y53203D1*
X29281Y53380D1*
X29612Y53448D1*
X33293D1*
X33539Y53702D1*
X33803Y53877D1*
X34099Y53989D1*
X34413Y54033D1*
X34729Y54006D1*
X35031Y53910D1*
X35304Y53750D1*
X35535Y53533D1*
X35712Y53270D1*
X35827Y52975D1*
X35875Y52610D1*
X35840Y52295D1*
X35735Y51996D1*
X35568Y51727D1*
X35345Y51502D1*
X35086Y51337D1*
X35304Y51210D1*
X35535Y50993D1*
X35712Y50730D1*
X35827Y50435D1*
X35875Y50070D1*
X35840Y49755D1*
X35735Y49456D1*
X35568Y49187D1*
X35345Y48962D1*
X35086Y48797D1*
X35304Y48670D1*
X35535Y48453D1*
X35712Y48190D1*
X35827Y47895D1*
X35875Y47530D1*
X35840Y47215D1*
X35735Y46916D1*
X35568Y46647D1*
X35345Y46422D1*
X35086Y46257D1*
X35304Y46130D1*
X35535Y45913D1*
X35712Y45650D1*
X35827Y45355D1*
X35875Y44990D1*
X35840Y44675D1*
X35735Y44376D1*
X35568Y44107D1*
X35345Y43882D1*
X35086Y43717D1*
X35304Y43590D1*
X35535Y43373D1*
X35712Y43110D1*
X35827Y42815D1*
X35875Y42450D1*
X35840Y42135D1*
X35735Y41836D1*
X35568Y41567D1*
X35345Y41342D1*
X35086Y41177D1*
X35304Y41050D1*
X35535Y40833D1*
X35712Y40570D1*
X35827Y40275D1*
X35875Y39910D1*
X35840Y39595D1*
X35735Y39296D1*
X35568Y39027D1*
X35345Y38802D1*
X35086Y38637D1*
X35304Y38510D1*
X35535Y38293D1*
X35712Y38030D1*
X35827Y37735D1*
X35875Y37370D1*
X35840Y37055D1*
X35735Y36756D1*
X35568Y36487D1*
X35345Y36262D1*
X35086Y36097D1*
X35304Y35970D1*
X35535Y35753D1*
X35712Y35490D1*
X35827Y35195D1*
X35875Y34830D1*
X35840Y34515D1*
X35735Y34216D1*
X35568Y33947D1*
X35345Y33722D1*
X35086Y33557D1*
X35304Y33430D1*
X35456Y33288D1*
X44821D1*
X44811Y33873D1*
X47533D1*
X47531Y40416D1*
X46116Y41830D1*
X44664Y41836D1*
Y44682D1*
X45210D1*
X44988Y44896D1*
X44815Y45162D1*
X44706Y45459D1*
X44665Y45774D1*
X44694Y46089D1*
X44793Y46390D1*
X44956Y46662D1*
X45175Y46891D1*
X45448Y47069D1*
X45215Y47215D1*
X44988Y47436D1*
X44815Y47702D1*
X44706Y47999D1*
X44665Y48314D1*
X44694Y48629D1*
X44793Y48930D1*
X44956Y49202D1*
X45175Y49431D1*
X45439Y49606D1*
X45735Y49718D1*
X46049Y49762D1*
X46365Y49735D1*
X46667Y49639D1*
X46940Y49479D1*
X47171Y49262D1*
X47348Y49000D1*
X47463Y48704D1*
X47511Y48339D1*
X47475Y48024D1*
X47371Y47725D1*
X47204Y47456D1*
X46981Y47231D1*
X46722Y47066D1*
X46940Y46939D1*
X47210Y46665D1*
X49064Y48518D1*
X49059Y51112D1*
X48849Y51233D1*
X48618Y51450D1*
X48439Y51712D1*
X48323Y52006D1*
X48274Y52319D1*
X48295Y52635D1*
X48385Y52939D1*
X48539Y53216D1*
X48751Y53452D1*
X49009Y53636D1*
X49301Y53759D1*
X49613Y53815D1*
X49929Y53801D1*
X50235Y53718D1*
X50515Y53569D1*
X50756Y53363D1*
X50945Y53109D1*
X51075Y52820D1*
X51143Y52383D1*
X51108Y52068D1*
X51005Y51768D1*
X50838Y51499D1*
X50734Y51392D1*
X50735Y48165D1*
X50676Y47855D1*
X50489Y47573D1*
X48124Y45207D1*
X47862Y45030D1*
X47531Y44961D1*
X47243D1*
X46972Y44686D1*
X47511Y44682D1*
Y43244D1*
X49222Y41526D1*
X49407Y41269D1*
X49502Y40958D1*
X49512Y40825D1*
Y31000D1*
X49462Y30688D1*
X49308Y30400D1*
X49222Y30299D1*
X41912Y22989D1*
X41655Y22804D1*
X41344Y22709D1*
X41211Y22699D1*
X35711D1*
X35398Y22749D1*
X35111Y22903D1*
X35010Y22989D1*
X29236Y28763D1*
X28428Y28761D1*
X30492Y24393D2*
X33021D1*
Y21546D1*
X30174D1*
Y24393D1*
X30492D1*
X27905Y22655D2*
X27801Y22355D1*
X27634Y22087D1*
X27411Y21862D1*
X27143Y21691D1*
X26845Y21585D1*
X26531Y21547D1*
X26215Y21579D1*
X25915Y21680D1*
X25645Y21846D1*
X25418Y22067D1*
X25251Y22324D1*
X25094Y22087D1*
X24871Y21862D1*
X24603Y21691D1*
X24305Y21585D1*
X23991Y21547D1*
X23675Y21579D1*
X23375Y21680D1*
X23105Y21846D1*
X22878Y22067D1*
X22711Y22324D1*
X22554Y22087D1*
X22331Y21862D1*
X22063Y21691D1*
X21765Y21585D1*
X21451Y21547D1*
X21135Y21579D1*
X20835Y21680D1*
X20565Y21846D1*
X20338Y22067D1*
X20171Y22324D1*
X20014Y22087D1*
X19791Y21862D1*
X19523Y21691D1*
X19225Y21585D1*
X18911Y21547D1*
X18595Y21579D1*
X18295Y21680D1*
X18025Y21846D1*
X17798Y22067D1*
X17625Y22332D1*
X17516Y22630D1*
X17475Y22944D1*
X17504Y23259D1*
X17603Y23560D1*
X17766Y23832D1*
X17985Y24061D1*
X18249Y24236D1*
X18545Y24348D1*
X18859Y24392D1*
X19175Y24365D1*
X19477Y24270D1*
X19750Y24109D1*
X19981Y23892D1*
X20169Y23602D1*
X20306Y23832D1*
X20525Y24061D1*
X20789Y24236D1*
X21085Y24348D1*
X21399Y24392D1*
X21715Y24365D1*
X22017Y24270D1*
X22290Y24109D1*
X22521Y23892D1*
X22709Y23602D1*
X22846Y23832D1*
X23065Y24061D1*
X23329Y24236D1*
X23625Y24348D1*
X23939Y24392D1*
X24255Y24365D1*
X24557Y24270D1*
X24830Y24109D1*
X25061Y23892D1*
X25249Y23602D1*
X25386Y23832D1*
X25605Y24061D1*
X25869Y24236D1*
X26165Y24348D1*
X26479Y24392D1*
X26795Y24365D1*
X27097Y24270D1*
X27370Y24109D1*
X27601Y23892D1*
X27778Y23630D1*
X27893Y23335D1*
X27941Y22970D1*
X27905Y22655D1*
X36941Y87213D2*
Y84873D1*
X34095D1*
X34094Y85413D1*
X33813Y85151D1*
X33816Y79281D1*
X34099Y79389D1*
X34413Y79433D1*
X34729Y79406D1*
X35031Y79310D1*
X35304Y79150D1*
X35535Y78933D1*
X35712Y78670D1*
X35827Y78375D1*
X35875Y78010D1*
X35840Y77695D1*
X35735Y77396D1*
X35568Y77127D1*
X35345Y76902D1*
X35086Y76737D1*
X35304Y76610D1*
X35535Y76393D1*
X35712Y76130D1*
X35827Y75835D1*
X35875Y75470D1*
X35840Y75155D1*
X35735Y74856D1*
X35568Y74587D1*
X35345Y74362D1*
X35086Y74197D1*
X35304Y74070D1*
X35535Y73853D1*
X35712Y73590D1*
X35827Y73295D1*
X35875Y72930D1*
X35840Y72615D1*
X35735Y72316D1*
X35568Y72047D1*
X35345Y71822D1*
X35086Y71657D1*
X35304Y71530D1*
X35535Y71313D1*
X35712Y71050D1*
X35827Y70755D1*
X35875Y70390D1*
X35840Y70075D1*
X35735Y69776D1*
X35568Y69507D1*
X35345Y69282D1*
X35086Y69117D1*
X35304Y68990D1*
X35535Y68773D1*
X35712Y68510D1*
X35827Y68215D1*
X35875Y67850D1*
X35840Y67535D1*
X35735Y67236D1*
X35568Y66967D1*
X35345Y66742D1*
X35086Y66577D1*
X35304Y66450D1*
X35535Y66233D1*
X35712Y65970D1*
X35827Y65675D1*
X35875Y65310D1*
X35840Y64995D1*
X35735Y64696D1*
X35568Y64427D1*
X35345Y64202D1*
X35086Y64037D1*
X35304Y63910D1*
X35535Y63693D1*
X35712Y63430D1*
X35827Y63135D1*
X35875Y62770D1*
X35840Y62455D1*
X35735Y62156D1*
X35568Y61887D1*
X35345Y61662D1*
X35086Y61497D1*
X35304Y61370D1*
X35535Y61153D1*
X35712Y60890D1*
X35827Y60595D1*
X35875Y60230D1*
X35840Y59915D1*
X35735Y59616D1*
X35568Y59347D1*
X35345Y59122D1*
X35086Y58957D1*
X35304Y58830D1*
X35535Y58613D1*
X35712Y58350D1*
X35827Y58055D1*
X35875Y57690D1*
X35840Y57375D1*
X35735Y57076D1*
X35568Y56807D1*
X35345Y56582D1*
X35077Y56412D1*
X34779Y56305D1*
X34465Y56267D1*
X34149Y56300D1*
X33849Y56401D1*
X33579Y56566D1*
X33352Y56787D1*
X33179Y57053D1*
X33070Y57350D1*
X33029Y57664D1*
X33058Y57980D1*
X33157Y58281D1*
X33320Y58553D1*
X33539Y58782D1*
X33812Y58960D1*
X33579Y59106D1*
X33352Y59327D1*
X33179Y59593D1*
X33070Y59890D1*
X33029Y60204D1*
X33058Y60520D1*
X33157Y60821D1*
X33320Y61093D1*
X33539Y61322D1*
X33812Y61500D1*
X33579Y61646D1*
X33352Y61867D1*
X33179Y62133D1*
X33070Y62430D1*
X33029Y62744D1*
X33052Y62991D1*
X29846Y66191D1*
X29668Y66452D1*
X29600Y66784D1*
Y85149D1*
X29338Y85393D1*
X29171Y85650D1*
X29014Y85413D1*
X28791Y85188D1*
X28524Y85018D1*
X28226Y84911D1*
X27911Y84873D1*
X27596Y84905D1*
X27296Y85007D1*
X27025Y85172D1*
X26798Y85393D1*
X26626Y85659D1*
X26516Y85956D1*
X26475Y86270D1*
X26505Y86586D1*
X26603Y86887D1*
X26766Y87159D1*
X26910Y87309D1*
X26929Y87427D1*
X27043Y87722D1*
X27198Y87923D1*
X28183Y88908D1*
X28439Y89093D1*
X28751Y89188D1*
X28883Y89198D1*
X41857D1*
X42169Y89148D1*
X42456Y88994D1*
X42557Y88908D1*
X44264Y87221D1*
X44581Y87204D1*
X44886Y87120D1*
X45167Y86973D1*
X45411Y86771D1*
X45607Y86522D1*
X45747Y86237D1*
X45823Y85930D1*
X45837Y85725D1*
X45804Y85410D1*
X45704Y85109D1*
X45544Y84836D1*
X45330Y84602D1*
X45072Y84419D1*
X44780Y84294D1*
X44469Y84233D1*
X44153Y84239D1*
X43844Y84311D1*
X43558Y84447D1*
X43306Y84640D1*
X43101Y84881D1*
X42951Y85161D1*
X42864Y85465D1*
X42846Y85811D1*
X41443Y87221D1*
X36945Y87217D1*
X44711Y63404D2*
X44596Y63109D1*
X44413Y62851D1*
X44171Y62646D1*
X43887Y62507D1*
X43577Y62441D1*
X43261Y62453D1*
X42957Y62542D1*
X42684Y62703D1*
X42459Y62926D1*
X42296Y63197D1*
X42204Y63500D1*
X42189Y63816D1*
X42252Y64127D1*
X42389Y64412D1*
X42591Y64655D1*
X42848Y64842D1*
X43142Y64959D1*
X43456Y65001D1*
X43770Y64965D1*
X44066Y64853D1*
X44326Y64672D1*
X44533Y64432D1*
X44676Y64150D1*
X44750Y63719D1*
X44711Y63404D1*
X39885D2*
X39770Y63109D1*
X39587Y62851D1*
X39345Y62646D1*
X39070Y62511D1*
X39062Y60126D1*
Y57755D1*
X39697Y57758D1*
Y54812D1*
X36751D1*
Y57758D1*
X37396D1*
X37386Y58825D1*
X37378Y63500D1*
X37363Y63816D1*
X37426Y64127D1*
X37563Y64412D1*
X37765Y64655D1*
X38022Y64842D1*
X38316Y64959D1*
X38630Y65001D1*
X38944Y64965D1*
X39240Y64853D1*
X39500Y64672D1*
X39707Y64432D1*
X39850Y64150D1*
X39924Y63719D1*
X39885Y63404D1*
X45804Y75060D2*
X45704Y74759D1*
X45544Y74486D1*
X45330Y74252D1*
X45072Y74069D1*
X44780Y73944D1*
X44469Y73883D1*
X44153Y73889D1*
X43844Y73961D1*
X43558Y74097D1*
X43471Y74163D1*
X40308Y71001D1*
X40329Y70772D1*
X40294Y70457D1*
X40190Y70157D1*
X40024Y69888D1*
X39802Y69661D1*
X39537Y69489D1*
X39239Y69379D1*
X38925Y69337D1*
X38610Y69365D1*
X38308Y69462D1*
X38035Y69622D1*
X37803Y69838D1*
X37625Y70100D1*
X37509Y70395D1*
X37460Y70708D1*
X37481Y71024D1*
X37571Y71328D1*
X37725Y71605D1*
X37936Y71841D1*
X38194Y72025D1*
X38486Y72148D1*
X38798Y72204D1*
X39124Y72187D1*
X42912Y75973D1*
X43168Y76309D1*
X43390Y76535D1*
X43656Y76708D1*
X43951Y76822D1*
X44264Y76871D1*
X44581Y76854D1*
X44886Y76770D1*
X45167Y76623D1*
X45411Y76421D1*
X45607Y76172D1*
X45747Y75887D1*
X45823Y75580D1*
X45837Y75375D1*
X45804Y75060D1*
X40551Y39830D2*
X40452Y39529D1*
X40292Y39255D1*
X40078Y39022D1*
X39820Y38838D1*
X39528Y38713D1*
X39217Y38653D1*
X38900Y38659D1*
X38592Y38731D1*
X38306Y38867D1*
X38054Y39060D1*
X37849Y39301D1*
X37699Y39580D1*
X37611Y39885D1*
X37590Y40201D1*
X37635Y40515D1*
X37745Y40812D1*
X37916Y41079D1*
X38138Y41305D1*
X38246Y41375D1*
X38249Y43985D1*
X37997Y44326D1*
X37889Y44624D1*
X37855Y44939D1*
X37897Y45253D1*
X38014Y45547D1*
X38198Y45805D1*
X38439Y46010D1*
X38722Y46152D1*
X39031Y46222D1*
X39348Y46216D1*
X39653Y46133D1*
X39930Y45980D1*
X40162Y45764D1*
X40336Y45499D1*
X40440Y45200D1*
X40471Y44921D1*
X40432Y44606D1*
X40320Y44310D1*
X40139Y44050D1*
X39923Y43861D1*
X39925Y41382D1*
X40159Y41191D1*
X40355Y40942D1*
X40495Y40657D1*
X40571Y40350D1*
X40585Y40145D1*
X40551Y39830D1*
X42479Y57831D2*
X45108D1*
Y54885D1*
X42162D1*
Y57831D1*
X42479D1*
X40294Y80617D2*
X40190Y80317D1*
X40024Y80048D1*
X39802Y79821D1*
X39537Y79649D1*
X39239Y79539D1*
X38925Y79497D1*
X38610Y79525D1*
X38308Y79622D1*
X38035Y79782D1*
X37803Y79998D1*
X37625Y80260D1*
X37509Y80555D1*
X37460Y80868D1*
X37481Y81184D1*
X37571Y81488D1*
X37725Y81765D1*
X37936Y82001D1*
X38194Y82185D1*
X38486Y82308D1*
X38798Y82364D1*
X39115Y82350D1*
X39421Y82266D1*
X39701Y82118D1*
X39941Y81912D1*
X40131Y81658D1*
X40260Y81369D1*
X40329Y80932D1*
X40294Y80617D1*
D15*
X27000Y29751D3*
X31598Y22970D3*
D16*
X29058D3*
X26518D3*
X23978D3*
X21438D3*
X18898D3*
D15*
X35518Y86296D3*
D16*
X32978D3*
X30438D3*
X27898D3*
X25358D3*
X22818D3*
D15*
X46234Y32450D3*
D16*
Y34990D3*
D15*
X46088Y43259D3*
D16*
Y45799D3*
Y48339D3*
D17*
X43468Y63719D3*
X38642D3*
D18*
X44339Y75375D3*
Y85725D3*
X39087Y29795D3*
Y40145D3*
D19*
X39163Y44921D3*
D20*
X41703D3*
D21*
X43635Y56358D3*
D22*
Y53818D3*
D21*
X38224Y56285D3*
D22*
Y53745D3*
D23*
X49708Y52383D3*
D24*
Y62543D3*
D23*
X38893Y80932D3*
D24*
Y70772D3*
D15*
X34452Y29750D3*
D16*
Y32290D3*
Y34830D3*
Y37370D3*
Y39910D3*
Y42450D3*
Y44990D3*
Y47530D3*
Y50070D3*
Y52610D3*
Y55150D3*
Y57690D3*
Y60230D3*
Y62770D3*
Y65310D3*
Y67850D3*
Y70390D3*
Y72930D3*
Y75470D3*
Y78010D3*
X19212D3*
Y75470D3*
Y72930D3*
Y70390D3*
Y67850D3*
Y65310D3*
Y62770D3*
Y60230D3*
Y57690D3*
Y55150D3*
Y52610D3*
Y50070D3*
Y47530D3*
Y44990D3*
Y42450D3*
Y39910D3*
Y37370D3*
Y34830D3*
Y32290D3*
Y29750D3*
X27000Y32291D3*
Y34831D3*
Y37371D3*
Y39911D3*
Y42451D3*
Y44991D3*
Y47531D3*
Y50071D3*
Y52611D3*
Y55151D3*
Y57691D3*
Y60231D3*
Y62771D3*
Y65311D3*
Y67851D3*
Y70391D3*
Y72931D3*
Y75471D3*
Y78011D3*
X11760D3*
Y75471D3*
Y72931D3*
Y70391D3*
Y67851D3*
Y65311D3*
Y62771D3*
Y60231D3*
Y57691D3*
Y55151D3*
Y52611D3*
Y50071D3*
Y47531D3*
Y44991D3*
Y42451D3*
Y39911D3*
Y37371D3*
Y34831D3*
Y32291D3*
Y29751D3*
M02*
